<svg xmlns="http://www.w3.org/2000/svg" xmlns:xlink="http://www.w3.org/1999/xlink" width="500" height="500" viewBox="0 0 500 500">
  <defs>
    <clipPath id="clip-Artboard_1">
      <rect width="500" height="500"/>
    </clipPath>
  </defs>
  <g id="Artboard_1" data-name="Artboard 1" clip-path="url(#clip-Artboard_1)">
    <rect width="500" height="500" fill="rgba(255,255,255,0)"/>
    <g id="OBJECTS">
      <g id="Group_1" data-name="Group 1">
        <path id="Path_1" data-name="Path 1" d="M425.571,424.007c-22.228-16.888-60.245-58.795-10.182-124.58,61.909-81.35-12.233-114.726-83.3-111.243-57.174,2.8-121.519-69.075-185.706-56.228-85.2,17.051-29.877,90.417-87.643,129.944-49.263,33.71-28.113,136.423,36,162.107Z" fill="#dcedf9"/>
        <path id="Path_2" data-name="Path 2" d="M463.989,274.431c-.343-12.063-11.58-16.742-19.081-8.009a37.653,37.653,0,0,0-9.173,21.807c-1.717,21.508,17.1,15.275,24.131,3.76C462.865,287.077,464.163,280.529,463.989,274.431Z" fill="#dcedf9"/>
        <path id="Path_3" data-name="Path 3" d="M235.831,114.982c-12.064.32-16.764,11.549-8.044,19.066a37.645,37.645,0,0,0,21.79,9.213c21.505,1.757,15.307-17.071,3.8-24.124C248.475,116.129,241.929,114.819,235.831,114.982Z" fill="#dcedf9"/>
        <path id="Path_4" data-name="Path 4" d="M70.632,232.174c4.744-11.1-3.5-20.055-13.968-15.27A37.65,37.65,0,0,0,39.2,232.859c-10.574,18.808,9.122,21.036,20.333,13.527C64.31,243.184,68.233,237.783,70.632,232.174Z" fill="#dcedf9"/>
      </g>
      <ellipse id="Ellipse_1" data-name="Ellipse 1" cx="203.246" cy="16.36" rx="203.246" ry="16.36" transform="translate(48.359 413.915)" fill="#dcedf9"/>
      <g id="Group_12" data-name="Group 12">
        <g id="Group_6" data-name="Group 6">
          <g id="Group_3" data-name="Group 3">
            <path id="Path_5" data-name="Path 5" d="M390.911,427.433a18.887,18.887,0,0,0,1.408,4.4h33.01c1.3-3.1,1.3-6.323-.627-9.062-12.028-17.129,2.811-16.785,5.16-28.493,2.578-12.844-9.657-6.2-5.946-23.4,5.03-23.309-5.874-34.5-11.391-21.049-5.2,12.692-2.529,17.888-15.262,27.4-10.559,7.891,7.871,20.522-2.594,33C390.208,415.544,389.852,421.895,390.911,427.433Z" fill="#007fe9"/>
            <g id="Group_2" data-name="Group 2">
              <path id="Path_6" data-name="Path 6" d="M405.118,431.83c3.749-30.2,10.337-63.2,10.425-63.644a.832.832,0,1,0-1.632-.328c-.09.444-6.713,33.634-10.471,63.972Z" fill="#0050db"/>
            </g>
          </g>
          <g id="Group_5" data-name="Group 5">
            <path id="Path_7" data-name="Path 7" d="M445.207,431.83c-.066-.248-.138-.5-.222-.745-8.691-25.468,9.5-19.711,16.613-33.319,7.8-14.93-9.692-11.13,1.071-31.029,14.588-26.966,5.152-44.7-6.495-30.079-10.988,13.8-9.552,21.173-28.692,28.344-15.872,5.946,2.34,28.164-15.064,39.8C405,409.768,402.277,417.48,401.6,424.7a24.078,24.078,0,0,0,.367,7.133Z" fill="#00a8ff"/>
            <g id="Group_4" data-name="Group 4">
              <path id="Path_8" data-name="Path 8" d="M419.028,431.83c15.248-34.912,34.011-70.921,34.27-71.418a1.07,1.07,0,0,0-1.9-.992c-.263.5-19.352,37.142-34.708,72.41Z" fill="#007fe9"/>
            </g>
          </g>
        </g>
        <g id="Group_11" data-name="Group 11">
          <g id="Group_8" data-name="Group 8">
            <path id="Path_9" data-name="Path 9" d="M111.834,427.433a18.886,18.886,0,0,1-1.407,4.4H77.417c-1.3-3.1-1.3-6.323.627-9.062,12.028-17.129-2.811-16.785-5.161-28.493-2.577-12.844,9.658-6.2,5.947-23.4-5.03-23.309,5.874-34.5,11.391-21.049,5.205,12.692,2.529,17.888,15.262,27.4,10.559,7.891-7.871,20.522,2.594,33C112.538,415.544,112.894,421.895,111.834,427.433Z" fill="#007fe9"/>
            <g id="Group_7" data-name="Group 7">
              <path id="Path_10" data-name="Path 10" d="M97.628,431.83c-3.749-30.2-10.337-63.2-10.425-63.644a.832.832,0,1,1,1.632-.328c.09.444,6.713,33.634,10.471,63.972Z" fill="#0050db"/>
            </g>
          </g>
          <g id="Group_10" data-name="Group 10">
            <path id="Path_11" data-name="Path 11" d="M57.538,431.83c.067-.248.139-.5.223-.745,8.691-25.468-9.5-19.711-16.613-33.319-7.8-14.93,9.692-11.13-1.071-31.029-14.588-26.966-5.152-44.7,6.495-30.079,10.988,13.8,9.552,21.173,28.692,28.344,15.871,5.946-2.34,28.164,15.064,39.8,7.418,4.961,10.14,12.673,10.823,19.89a24.044,24.044,0,0,1-.368,7.133Z" fill="#00a8ff"/>
            <g id="Group_9" data-name="Group 9">
              <path id="Path_12" data-name="Path 12" d="M83.718,431.83c-15.248-34.912-34.011-70.921-34.27-71.418a1.07,1.07,0,0,1,1.9-.992c.263.5,19.352,37.142,34.708,72.41Z" fill="#007fe9"/>
            </g>
          </g>
        </g>
        <path id="Path_13" data-name="Path 13" d="M153.439,431.82h2.509l-3.856-10.8a50.84,50.84,0,0,1,6.928-19.274c7.168-11.962,9.006-20.436,3-20.388-7.785.061-13.366,19-11.738,34.6l-9.18-25.715c.373-3.326,1.736-9.682,6.574-17.674,6.4-10.575,11.345-22.977,3.466-22.3-7.908.676-13.583,19.718-11.635,35.508l-7.655-21.445A27.808,27.808,0,0,1,136,353.147c4.036-6.665,7.15-14.481,2.184-14.057-5,.428-8.58,12.495-7.322,22.463l-1.621-4.54c-1.487-13.7-10.938-28.872-16.713-27.609s-.114,9.969,7.367,17.709a44.476,44.476,0,0,1,6.718,9.567l3.15,8.823c-5.624-6.859-13.86-11.781-17.429-9.337-4.112,2.816,3.248,6.893,10.591,9.5a30.591,30.591,0,0,1,8.491,4.473l9.718,27.222c-8.841-12.224-23.592-21.665-29.707-17.478-6.525,4.468,5.153,10.937,16.806,15.067a46.445,46.445,0,0,1,15.026,8.364l7.567,21.2c-8.53-13.358-24.842-24.359-31.356-19.9s5.154,10.937,16.806,15.067c8.7,3.083,13.76,7.078,16.191,9.429Z" fill="#00a8ff"/>
        <path id="Path_14" data-name="Path 14" d="M342.7,380.557l-2.468-.456,5.755-9.922a50.844,50.844,0,0,0-3.309-20.212c-4.875-13.065-5.142-21.732.751-20.594,7.644,1.475,9.691,21.111,5.254,36.158l13.7-23.618c.238-3.339.053-9.837-3.253-18.575-4.374-11.562-6.98-24.656.646-22.561,7.653,2.1,9.773,21.858,4.988,37.031l11.425-19.7a27.831,27.831,0,0,0-2.046-11.749c-2.757-7.287-4.4-15.54.407-14.219,4.836,1.328,6.167,13.846,3.117,23.419l2.419-4.171c3.954-13.2,16-26.4,21.454-24.11s-1.7,9.823-10.464,16.075a44.5,44.5,0,0,0-8.345,8.186l-4.7,8.1c6.776-5.723,15.77-9.066,18.835-6.014,3.532,3.517-4.446,6.188-12.141,7.413a30.59,30.59,0,0,0-9.162,2.855l-14.5,25c10.914-10.414,27.136-17.017,32.388-11.788,5.605,5.58-7.055,9.818-19.264,11.762a46.417,46.417,0,0,0-16.3,5.494L346.6,373.841c10.816-11.585,28.856-19.439,34.45-13.869s-7.055,9.819-19.264,11.762c-9.114,1.451-14.818,4.459-17.635,6.329Z" fill="#00a8ff"/>
      </g>
      <g id="Group_16" data-name="Group 16">
        <rect id="Rectangle_2" data-name="Rectangle 2" width="79.387" height="114.926" transform="matrix(0.001, -1, 1, 0.001, 231.114, 437.823)" fill="#ffaa01"/>
        <path id="Path_15" data-name="Path 15" d="M346.15,358.605l-.007,5.089L288.61,414.54l-57.389-51.011.007-5.089,57.385,51.185Z" fill="#f88800"/>
        <g id="Group_13" data-name="Group 13">
          <path id="Path_16" data-name="Path 16" d="M277.56,399.587l-43.118,38.241-3.329,0,0-2.024,43.972-39Z" fill="#f88800"/>
        </g>
        <g id="Group_15" data-name="Group 15">
          <g id="Group_14" data-name="Group 14">
            <path id="Path_17" data-name="Path 17" d="M346.042,436.234l0,1.755-3.63-.005L299.4,399.619l2.479-2.778Z" fill="#f88800"/>
          </g>
        </g>
        <path id="Path_18" data-name="Path 18" d="M231.225,358.436l57.389,51.189L346.15,358.6Z" fill="#fdcc50"/>
      </g>
      <g id="Group_22" data-name="Group 22">
        <g id="Group_19" data-name="Group 19">
          <g id="Group_17" data-name="Group 17">
            <path id="Path_19" data-name="Path 19" d="M276.432,86.742a.677.677,0,0,1-.335-.05c-1.165-.491-1.847-.72-1.854-.723a.681.681,0,0,1,.432-1.292c.029.01.732.246,1.951.76a.681.681,0,0,1-.194,1.305Z" fill="#dcedf9"/>
          </g>
          <g id="Group_18" data-name="Group 18">
            <path id="Path_20" data-name="Path 20" d="M311.142,123.272c.463,1.235.9,2.51,1.289,3.788a.682.682,0,0,0,.722.477.656.656,0,0,0,.129-.026.681.681,0,0,0,.451-.851c-.4-1.3-.843-2.605-1.316-3.866a.681.681,0,1,0-1.275.478Z" fill="#dcedf9"/>
            <path id="Path_21" data-name="Path 21" d="M313.492,130.918c.312,1.28.6,2.6.839,3.916a.68.68,0,0,0,.74.553l.054-.007a.682.682,0,0,0,.545-.794c-.249-1.344-.536-2.686-.854-3.99a.681.681,0,0,0-1.324.322Z" fill="#dcedf9"/>
            <path id="Path_22" data-name="Path 22" d="M316.365,151.486a.682.682,0,0,0,.609-.667c.02-1.366.011-2.738-.03-4.076a.681.681,0,1,0-1.361.041c.04,1.318.049,2.668.029,4.014a.68.68,0,0,0,.67.691A.569.569,0,0,0,316.365,151.486Z" fill="#dcedf9"/>
            <path id="Path_23" data-name="Path 23" d="M315.54,138.027a.68.68,0,0,0-.587.763c.079.616.153,1.238.217,1.849.074.706.141,1.426.2,2.139a.68.68,0,0,0,.732.626l.018,0a.68.68,0,0,0,.607-.73c-.057-.726-.124-1.458-.2-2.175-.065-.623-.139-1.256-.221-1.882a.681.681,0,0,0-.746-.59Z" fill="#dcedf9"/>
            <path id="Path_24" data-name="Path 24" d="M309.622,119.572a.683.683,0,0,0,.693.4.7.7,0,0,0,.207-.056.682.682,0,0,0,.344-.9c-.555-1.24-1.156-2.477-1.786-3.675a.681.681,0,0,0-1.206.634C308.491,117.147,309.079,118.357,309.622,119.572Z" fill="#dcedf9"/>
            <path id="Path_25" data-name="Path 25" d="M279.714,88.384c1.17.6,2.35,1.249,3.508,1.935a.681.681,0,0,0,.694-1.173c-1.182-.7-2.387-1.364-3.582-1.975a.681.681,0,0,0-.62,1.213Z" fill="#dcedf9"/>
            <path id="Path_26" data-name="Path 26" d="M289.864,94.8a.681.681,0,0,0,.826-1.082c-1.078-.823-2.2-1.625-3.319-2.384a.681.681,0,0,0-.762,1.129C287.711,93.2,288.806,93.99,289.864,94.8Z" fill="#dcedf9"/>
            <path id="Path_27" data-name="Path 27" d="M295.927,100.026a.681.681,0,1,0,.951-.976c-.969-.942-1.983-1.871-3.015-2.76a.681.681,0,0,0-.889,1.032C293.985,98.193,294.979,99.1,295.927,100.026Z" fill="#dcedf9"/>
            <path id="Path_28" data-name="Path 28" d="M301.308,105.948a.681.681,0,1,0,1.063-.851c-.846-1.057-1.739-2.1-2.653-3.109a.681.681,0,0,0-1.008.916C299.605,103.889,300.479,104.913,301.308,105.948Z" fill="#dcedf9"/>
            <path id="Path_29" data-name="Path 29" d="M305.9,112.5a.683.683,0,0,0,.653.323.7.7,0,0,0,.283-.1.682.682,0,0,0,.226-.937c-.706-1.158-1.46-2.308-2.239-3.418a.681.681,0,1,0-1.115.782C304.471,110.236,305.209,111.362,305.9,112.5Z" fill="#dcedf9"/>
          </g>
        </g>
        <g id="Group_21" data-name="Group 21">
          <g id="Group_20" data-name="Group 20">
            <path id="Path_30" data-name="Path 30" d="M276.419,82.082l2.98-11.039-36.52.314Z" fill="#fdcc50"/>
            <path id="Path_31" data-name="Path 31" d="M242.879,71.356l31.767,13.391.084.036,1.367,2.264.322-4.965Z" fill="#ffaa01"/>
            <path id="Path_32" data-name="Path 32" d="M276.1,87.047l-2.961-.467,1.594-1.8Z" fill="#f88800"/>
            <path id="Path_33" data-name="Path 33" d="M270.733,83.1l4,1.685L266.5,94.059l-23.619-22.7Z" fill="#fdcc50"/>
          </g>
        </g>
      </g>
      <g id="Group_82" data-name="Group 82">
        <g id="Group_44" data-name="Group 44">
          <g id="Group_23" data-name="Group 23">
            <path id="Path_34" data-name="Path 34" d="M456.91,149.906a5.3,5.3,0,1,1-5.3,5.3A5.311,5.311,0,0,1,456.91,149.906Zm0,8.945a3.64,3.64,0,1,0-3.641-3.64A3.645,3.645,0,0,0,456.91,158.851Z" fill="#00a8ff"/>
          </g>
          <g id="Group_24" data-name="Group 24">
            <path id="Path_35" data-name="Path 35" d="M437.813,131.3a5.3,5.3,0,1,1-5.3,5.3A5.31,5.31,0,0,1,437.813,131.3Zm0,8.945a3.64,3.64,0,1,0-3.64-3.641A3.645,3.645,0,0,0,437.813,140.241Z" fill="#ffaa01"/>
          </g>
          <g id="Group_31" data-name="Group 31">
            <g id="Group_27" data-name="Group 27">
              <g id="Group_25" data-name="Group 25">
                <path id="Path_36" data-name="Path 36" d="M431.259,114.057a.832.832,0,0,1,.832.833v3.669a.832.832,0,0,1-1.664,0V114.89A.833.833,0,0,1,431.259,114.057Z" fill="#00a8ff"/>
              </g>
              <g id="Group_26" data-name="Group 26">
                <path id="Path_37" data-name="Path 37" d="M431.259,107.636a.831.831,0,0,1,.832.832v3.67a.832.832,0,0,1-1.664,0v-3.67A.832.832,0,0,1,431.259,107.636Z" fill="#00a8ff"/>
              </g>
            </g>
            <g id="Group_30" data-name="Group 30">
              <g id="Group_28" data-name="Group 28">
                <path id="Path_38" data-name="Path 38" d="M426.109,112.681h3.3a.833.833,0,0,1,0,1.665h-3.3a.833.833,0,1,1,0-1.665Z" fill="#00a8ff"/>
              </g>
              <g id="Group_29" data-name="Group 29">
                <path id="Path_39" data-name="Path 39" d="M433.114,112.681h3.3a.833.833,0,0,1,0,1.665h-3.3a.833.833,0,0,1,0-1.665Z" fill="#00a8ff"/>
              </g>
            </g>
          </g>
          <g id="Group_43" data-name="Group 43">
            <g id="Group_42" data-name="Group 42">
              <g id="Group_36" data-name="Group 36">
                <g id="Group_33" data-name="Group 33">
                  <g id="Group_32" data-name="Group 32">
                    <path id="Path_40" data-name="Path 40" d="M460.551,134.62a.832.832,0,0,1,.832.832v3.669a.833.833,0,0,1-1.665,0v-3.669A.832.832,0,0,1,460.551,134.62Z" fill="#ffaa01"/>
                  </g>
                </g>
                <g id="Group_35" data-name="Group 35">
                  <g id="Group_34" data-name="Group 34">
                    <path id="Path_41" data-name="Path 41" d="M460.551,128.2a.832.832,0,0,1,.832.832V132.7a.833.833,0,1,1-1.665,0V129.03A.832.832,0,0,1,460.551,128.2Z" fill="#ffaa01"/>
                  </g>
                </g>
              </g>
              <g id="Group_41" data-name="Group 41">
                <g id="Group_38" data-name="Group 38">
                  <g id="Group_37" data-name="Group 37">
                    <path id="Path_42" data-name="Path 42" d="M455.4,133.244h3.3a.832.832,0,1,1,0,1.664h-3.3a.832.832,0,0,1,0-1.664Z" fill="#ffaa01"/>
                  </g>
                </g>
                <g id="Group_40" data-name="Group 40">
                  <g id="Group_39" data-name="Group 39">
                    <path id="Path_43" data-name="Path 43" d="M462.4,133.244h3.3a.832.832,0,1,1,0,1.664h-3.3a.832.832,0,0,1,0-1.664Z" fill="#ffaa01"/>
                  </g>
                </g>
              </g>
            </g>
          </g>
        </g>
        <g id="Group_72" data-name="Group 72">
          <g id="Group_47" data-name="Group 47">
            <g id="Group_46" data-name="Group 46">
              <g id="Group_45" data-name="Group 45">
                <path id="Path_44" data-name="Path 44" d="M99.861,122.981a5.3,5.3,0,1,1-5.305,5.3A5.31,5.31,0,0,1,99.861,122.981Zm0,1.664a3.64,3.64,0,1,0,3.641,3.64A3.644,3.644,0,0,0,99.861,124.645Z" fill="#00a8ff"/>
              </g>
            </g>
          </g>
          <g id="Group_51" data-name="Group 51">
            <g id="Group_50" data-name="Group 50">
              <g id="Group_49" data-name="Group 49">
                <g id="Group_48" data-name="Group 48">
                  <path id="Path_45" data-name="Path 45" d="M80.541,105.458a5.305,5.305,0,1,1-5.3,5.305A5.311,5.311,0,0,1,80.541,105.458Zm0,1.665a3.64,3.64,0,1,0,3.641,3.64A3.644,3.644,0,0,0,80.541,107.123Z" fill="#ffaa01"/>
                </g>
              </g>
            </g>
          </g>
          <g id="Group_58" data-name="Group 58">
            <g id="Group_54" data-name="Group 54">
              <g id="Group_52" data-name="Group 52">
                <path id="Path_46" data-name="Path 46" d="M73.543,135.78a.833.833,0,0,0,.832.833h3.67a.833.833,0,0,0,0-1.665h-3.67A.833.833,0,0,0,73.543,135.78Z" fill="#00a8ff"/>
              </g>
              <g id="Group_53" data-name="Group 53">
                <path id="Path_47" data-name="Path 47" d="M67.122,135.78a.832.832,0,0,0,.832.833h3.669a.833.833,0,0,0,0-1.665H67.954A.832.832,0,0,0,67.122,135.78Z" fill="#00a8ff"/>
              </g>
            </g>
            <g id="Group_57" data-name="Group 57">
              <g id="Group_55" data-name="Group 55">
                <path id="Path_48" data-name="Path 48" d="M72.167,130.63v3.3a.832.832,0,0,0,1.664,0v-3.3a.832.832,0,1,0-1.664,0Z" fill="#00a8ff"/>
              </g>
              <g id="Group_56" data-name="Group 56">
                <path id="Path_49" data-name="Path 49" d="M72.167,137.635v3.3a.832.832,0,0,0,1.664,0v-3.3a.832.832,0,0,0-1.664,0Z" fill="#00a8ff"/>
              </g>
            </g>
          </g>
          <g id="Group_71" data-name="Group 71">
            <g id="Group_70" data-name="Group 70">
              <g id="Group_64" data-name="Group 64">
                <g id="Group_60" data-name="Group 60">
                  <g id="Group_59" data-name="Group 59">
                    <path id="Path_50" data-name="Path 50" d="M112.4,107.123a.832.832,0,0,0,.832.832H116.9a.833.833,0,0,0,0-1.665h-3.669A.832.832,0,0,0,112.4,107.123Z" fill="#ffaa01"/>
                  </g>
                </g>
                <g id="Group_63" data-name="Group 63">
                  <g id="Group_62" data-name="Group 62">
                    <g id="Group_61" data-name="Group 61">
                      <path id="Path_51" data-name="Path 51" d="M105.98,107.123a.832.832,0,0,0,.832.832h3.669a.833.833,0,0,0,0-1.665h-3.669A.832.832,0,0,0,105.98,107.123Z" fill="#ffaa01"/>
                    </g>
                  </g>
                </g>
              </g>
              <g id="Group_69" data-name="Group 69">
                <g id="Group_66" data-name="Group 66">
                  <g id="Group_65" data-name="Group 65">
                    <path id="Path_52" data-name="Path 52" d="M111.025,101.972v3.3a.833.833,0,0,0,1.665,0v-3.3a.833.833,0,0,0-1.665,0Z" fill="#ffaa01"/>
                  </g>
                </g>
                <g id="Group_68" data-name="Group 68">
                  <g id="Group_67" data-name="Group 67">
                    <path id="Path_53" data-name="Path 53" d="M111.025,108.977v3.3a.833.833,0,0,0,1.665,0v-3.3a.833.833,0,0,0-1.665,0Z" fill="#ffaa01"/>
                  </g>
                </g>
              </g>
            </g>
          </g>
        </g>
        <g id="Group_77" data-name="Group 77">
          <g id="Group_75" data-name="Group 75">
            <g id="Group_74" data-name="Group 74">
              <g id="Group_73" data-name="Group 73">
                <rect id="Rectangle_3" data-name="Rectangle 3" width="23.409" height="23.409" rx="4.264" transform="translate(55.985 171.148)" fill="#ffaa01"/>
              </g>
            </g>
          </g>
          <g id="Group_76" data-name="Group 76">
            <path id="Path_54" data-name="Path 54" d="M74.312,178.033c-.039-.161-.077-.323-.117-.484a3.615,3.615,0,0,0-.795-1.513,3.7,3.7,0,0,0-.951-.793,1.087,1.087,0,0,0-1.422.277q-.978,1.181-1.946,2.372a1.125,1.125,0,0,0,.159,1.589c.351.311.722.6,1.085.9a1.413,1.413,0,0,0,.141.093,10.436,10.436,0,0,1-4.44,5.42l-.791-.658c-.137-.113-.273-.228-.414-.336a1.119,1.119,0,0,0-1.355-.07,1.715,1.715,0,0,0-.361.356c-.59.712-1.171,1.431-1.762,2.142a1.5,1.5,0,0,0-.347.762l.031.317a2.415,2.415,0,0,0,.314.53,4.055,4.055,0,0,0,1.178.855,3.319,3.319,0,0,0,1.664.334,6.3,6.3,0,0,0,1.137-.217,9.09,9.09,0,0,0,2.638-1.273,13.847,13.847,0,0,0,2.224-1.883,22.526,22.526,0,0,0,2.46-3.073,11.182,11.182,0,0,0,1.406-2.753,6.274,6.274,0,0,0,.308-1.533c.014-.211.019-.423.028-.634Z" fill="#fff"/>
          </g>
        </g>
        <g id="Group_81" data-name="Group 81">
          <g id="Group_79" data-name="Group 79">
            <g id="Group_78" data-name="Group 78">
              <rect id="Rectangle_4" data-name="Rectangle 4" width="23.764" height="23.764" rx="3.4" transform="translate(415.652 306.62)" fill="#ffaa01"/>
            </g>
          </g>
          <g id="Group_80" data-name="Group 80">
            <path id="Path_55" data-name="Path 55" d="M435.127,318.052c0,2.963-1.66,4.5-3.645,4.5a2.5,2.5,0,0,1-2.451-1.35,2.415,2.415,0,0,1-2.358,1.35c-1.675,0-3.288-1.474-3.288-3.862s1.566-3.848,3.288-3.848a2.454,2.454,0,0,1,1.909.761v-.622h2.978v4.438c0,.651.264.852.605.852.435,0,.791-.434.791-2.171,0-2.808-2.1-4.794-5.29-4.794a5.057,5.057,0,0,0-5.321,5.182A4.987,4.987,0,0,0,427.6,323.7a7.464,7.464,0,0,0,3.134-.682l.651,1.909a9.443,9.443,0,0,1-3.785.744c-4.67,0-7.664-3.118-7.664-7.182,0-4,2.994-7.152,7.726-7.152C432.133,311.335,435.127,314.328,435.127,318.052Zm-6.484.637c0-.931-.481-1.412-1.116-1.412s-1.1.481-1.1,1.412c0,.946.465,1.426,1.1,1.426S428.643,319.635,428.643,318.689Z" fill="#fff"/>
          </g>
        </g>
      </g>
      <g id="Group_89" data-name="Group 89">
        <g id="Group_84" data-name="Group 84">
          <path id="Path_56" data-name="Path 56" d="M431.1,177.858v75.813a12.823,12.823,0,0,1-12.823,12.823H236.653V136.871H390.115A40.984,40.984,0,0,1,431.1,177.858Z" fill="#00a8ff"/>
          <path id="Path_57" data-name="Path 57" d="M431.1,237.617v16.054a12.823,12.823,0,0,1-12.823,12.823H266.452V237.617Z" fill="#28baff"/>
          <path id="Path_58" data-name="Path 58" d="M279.475,173.39v93.1h-82.12v-93.1a36.616,36.616,0,0,1,36.617-36.617h9.112A36.616,36.616,0,0,1,279.475,173.39Z" fill="#007fe9"/>
          <path id="Path_59" data-name="Path 59" d="M279.475,173.39v93.1H206.467v-93.1a36.618,36.618,0,0,1,36.391-36.617h.226A36.616,36.616,0,0,1,279.475,173.39Z" fill="#0050db"/>
          <g id="Group_83" data-name="Group 83">
            <path id="Path_60" data-name="Path 60" d="M197.353,266.492l-31.271,55.06c-11.487,20.225-4.4,36.617,15.82,36.617h9.112c20.191-.123,45.744-16.467,57.188-36.617l31.272-55.06Z" fill="#007fe9"/>
            <rect id="Rectangle_5" data-name="Rectangle 5" width="82.12" height="5.32" transform="translate(197.355 261.173)" fill="#007fe9"/>
          </g>
        </g>
        <g id="Group_87" data-name="Group 87">
          <g id="Group_85" data-name="Group 85">
            <circle id="Ellipse_2" data-name="Ellipse 2" cx="13.167" cy="13.167" r="13.167" transform="translate(352.117 156.715)" fill="#007fe9"/>
            <circle id="Ellipse_3" data-name="Ellipse 3" cx="13.167" cy="13.167" r="13.167" transform="translate(352.117 154.207)" fill="#2e3052"/>
            <path id="Path_61" data-name="Path 61" d="M365.284,175.022a7.649,7.649,0,1,1,7.649-7.649A7.657,7.657,0,0,1,365.284,175.022Z" fill="#524e84"/>
          </g>
          <g id="Group_86" data-name="Group 86">
            <path id="Path_62" data-name="Path 62" d="M367.487,79.289V167.1a2.2,2.2,0,0,1-4.406,0V79.289Z" fill="#ffaa01"/>
            <path id="Path_63" data-name="Path 63" d="M398.75,95.655H363.081V75.793H398.75l-8.109,9.931Z" fill="#2e3052"/>
            <path id="Path_64" data-name="Path 64" d="M367.487,95.654v1.2l-4.406,1.54V95.654Z" fill="#f88800"/>
          </g>
        </g>
        <g id="Group_88" data-name="Group 88">
          <rect id="Rectangle_6" data-name="Rectangle 6" width="17.556" height="168.063" transform="translate(316.176 266.516)" fill="#007fe9"/>
          <path id="Rectangle_7" data-name="Rectangle 7" d="M10.7,0H67.133a10.7,10.7,0,0,1,10.7,10.7v3.807a0,0,0,0,1,0,0H0a0,0,0,0,1,0,0V10.7A10.7,10.7,0,0,1,10.7,0Z" transform="translate(286.036 423.549)" fill="#00a8ff"/>
          <path id="Path_65" data-name="Path 65" d="M333.732,266.516v4.532l-17.556,6.145V266.516Z" fill="#0050db"/>
        </g>
      </g>
      <g id="Group_137" data-name="Group 137">
        <g id="Group_136" data-name="Group 136">
          <path id="Path_66" data-name="Path 66" d="M173.185,205.281c6.513,23.693,27.972,30.308,27.972,30.308a64.463,64.463,0,0,0,19.253-7.309c-1.586-3.8-2.273-7.656-3.153-12.668-7.9,2.2-14.728,3.374-14.728,3.374-16.683-7.733-26.8-44.745-26.8-44.745C165.812,183.654,173.185,205.281,173.185,205.281Z" fill="#007fe9"/>
          <g id="Group_96" data-name="Group 96">
            <path id="Path_67" data-name="Path 67" d="M117.069,395.663l-7.058,9.441s1.289,4.221,6.516,7.474l8.442-10.864Z" fill="#fba691"/>
            <g id="Group_95" data-name="Group 95">
              <g id="Group_90" data-name="Group 90">
                <path id="Path_68" data-name="Path 68" d="M115.355,409.653s3.3-.712,4.432.43,3.965,16.673,6.618,20.071-.018,5.2-1.651,5.892-25.029-22.685-25.029-22.685,5.784-7.991,8.573-9.543S112.395,408.008,115.355,409.653Z" fill="#ffaa01"/>
              </g>
              <g id="Group_94" data-name="Group 94">
                <g id="Group_91" data-name="Group 91">
                  <path id="Path_69" data-name="Path 69" d="M115.791,418.718a.6.6,0,0,1-.339-.333.628.628,0,0,1,.321-.808,9.06,9.06,0,0,1,4.45-.744,4.11,4.11,0,0,1,3.236,2.775.624.624,0,0,1-.413.763.589.589,0,0,1-.739-.415A2.926,2.926,0,0,0,120,418.043a8.006,8.006,0,0,0-3.763.663A.585.585,0,0,1,115.791,418.718Z" fill="#fff"/>
                </g>
                <g id="Group_92" data-name="Group 92">
                  <path id="Path_70" data-name="Path 70" d="M115.4,416.233a.6.6,0,0,1-.338-.332.626.626,0,0,1,.32-.808,9.049,9.049,0,0,1,4.451-.745,4.107,4.107,0,0,1,3.236,2.775.626.626,0,0,1-.413.764.589.589,0,0,1-.739-.416,2.93,2.93,0,0,0-2.309-1.913,7.968,7.968,0,0,0-3.763.663A.583.583,0,0,1,115.4,416.233Z" fill="#fff"/>
                </g>
                <g id="Group_93" data-name="Group 93">
                  <path id="Path_71" data-name="Path 71" d="M116.872,421.333a.6.6,0,0,1-.338-.332.628.628,0,0,1,.321-.809,9.06,9.06,0,0,1,4.45-.744,4.1,4.1,0,0,1,3.236,2.774.624.624,0,0,1-.412.764.588.588,0,0,1-.739-.415,2.933,2.933,0,0,0-2.31-1.914,7.973,7.973,0,0,0-3.762.663A.581.581,0,0,1,116.872,421.333Z" fill="#fff"/>
                </g>
              </g>
            </g>
          </g>
          <g id="Group_103" data-name="Group 103">
            <path id="Path_72" data-name="Path 72" d="M160.364,411.874l1.07,11.74s3.782,2.274,9.842,1.195l-.993-13.722Z" fill="#fba691"/>
            <g id="Group_102" data-name="Group 102">
              <g id="Group_97" data-name="Group 97">
                <path id="Path_73" data-name="Path 73" d="M169.138,423.159s2.064-2.858,3.738-2.761,14.721,10.167,19.152,10.95,3.62,4.05,2.834,5.724-35.091.715-35.091.715-1.264-11.074-.184-14.226S165.692,423.951,169.138,423.159Z" fill="#ffaa01"/>
              </g>
              <g id="Group_101" data-name="Group 101">
                <g id="Group_98" data-name="Group 98">
                  <path id="Path_74" data-name="Path 74" d="M177.628,430.637a.592.592,0,0,1-.473-.04.627.627,0,0,1-.269-.826,9.063,9.063,0,0,1,2.953-3.413,4.113,4.113,0,0,1,4.262.072.625.625,0,0,1,.169.852.589.589,0,0,1-.834.151,2.929,2.929,0,0,0-3,0,8.022,8.022,0,0,0-2.475,2.911A.577.577,0,0,1,177.628,430.637Z" fill="#fff"/>
                </g>
                <g id="Group_99" data-name="Group 99">
                  <path id="Path_75" data-name="Path 75" d="M175.746,428.97a.593.593,0,0,1-.473-.04A.628.628,0,0,1,175,428.1a9.067,9.067,0,0,1,2.952-3.413,4.11,4.11,0,0,1,4.263.073.624.624,0,0,1,.169.851.588.588,0,0,1-.834.151,2.931,2.931,0,0,0-3,0,7.965,7.965,0,0,0-2.474,2.911A.585.585,0,0,1,175.746,428.97Z" fill="#fff"/>
                </g>
                <g id="Group_100" data-name="Group 100">
                  <path id="Path_76" data-name="Path 76" d="M180.129,431.961a.593.593,0,0,1-.473-.04.627.627,0,0,1-.268-.827,9.057,9.057,0,0,1,2.952-3.413,4.107,4.107,0,0,1,4.262.072.624.624,0,0,1,.169.851.589.589,0,0,1-.834.152,2.929,2.929,0,0,0-3,0,7.973,7.973,0,0,0-2.474,2.911A.581.581,0,0,1,180.129,431.961Z" fill="#fff"/>
                </g>
              </g>
            </g>
          </g>
          <g id="Group_104" data-name="Group 104">
            <path id="Path_77" data-name="Path 77" d="M153.785,284.45l-7.129,59a197.234,197.234,0,0,0-12.493,19.784c-5.117,9.321-18.753,33.506-18.753,33.506l8.247,6.287,45.17-46.809,12.025-72.344Z" fill="#001030"/>
            <path id="Path_78" data-name="Path 78" d="M125.691,402.878a9.107,9.107,0,0,1-3.743,4.19l-9.578-8.088a14.443,14.443,0,0,1,3.264-4.43Z" fill="#2e3052"/>
          </g>
          <g id="Group_105" data-name="Group 105">
            <path id="Path_79" data-name="Path 79" d="M117.306,286.889s12.72,31.274,29.252,55.661c0,0,2.468,23.734,6.691,36.369,1.848,5.532,5.429,31.743,5.429,31.743l12.541-.57-3.236-72.877-13.266-52.784Z" fill="#2e3052"/>
            <path id="Path_80" data-name="Path 80" d="M172.386,409.662a10.547,10.547,0,0,1,0,6.508l-14.514.4a16.712,16.712,0,0,1-.6-6.345Z" fill="#524e84"/>
          </g>
          <g id="Group_114" data-name="Group 114">
            <g id="Group_109" data-name="Group 109">
              <g id="Group_108" data-name="Group 108">
                <g id="Group_107" data-name="Group 107">
                  <g id="Group_106" data-name="Group 106">
                    <path id="Path_81" data-name="Path 81" d="M175.728,174.241c1.891,2.359,5.683,26.4,6.278,50.8.015.563.027,1.124.043,1.685q.092,3.873.168,7.772.078,3.842.141,7.653c.067,4.151.129,8.238.178,12.175.006.447.009.891.015,1.336.046,3.838.083,7.518.11,10.955q0,.675.009,1.336c.04,5.159.065,9.727.068,13.394v0c0,.514,0,1,0,1.48,0,2.564-.006,4.6-.025,5.97a128.811,128.811,0,0,1-18.219,3.548c-.159.019-.322.04-.484.058-.273.034-.539.065-.809.1l-.2.019c-1.054.116-2.1.217-3.159.3a122.019,122.019,0,0,1-15.661.282c-.459-.021-.913-.046-1.372-.074-.408-.021-.821-.046-1.235-.076-.184-.01-.371-.022-.557-.037-.35-.024-.693-.052-1.042-.076a127.093,127.093,0,0,1-23.011-4.042c-.04-3.02-.077-9.175-.089-17.113,0-.435,0-.876,0-1.323-.009-8.756.025-19.5.129-30.569.009-.876.018-1.749.03-2.628q.015-1.522.031-3.058c0-.172,0-.346.006-.518.006-.239.009-.478.012-.72,0-.481.01-.965.019-1.443.009-.7.018-1.4.031-2.1.006-.53.015-1.06.021-1.59.015-1.054.034-2.108.049-3.156.371-21.969,1.112-42.158,2.524-47.3a3.768,3.768,0,0,1,.408-1.026,6.511,6.511,0,0,1,.545-.7,11.933,11.933,0,0,1,.913-.922c2.353-2.166,6.434-4.681,10.573-7.068.481-.278.968-.554,1.446-.83.073-.04,11.246-3.808,11.317-3.851l11.687.818S172.949,170.775,175.728,174.241Z" fill="#00a8ff"/>
                  </g>
                </g>
              </g>
            </g>
            <g id="Group_110" data-name="Group 110">
              <path id="Path_82" data-name="Path 82" d="M128.573,205.892a.609.609,0,0,0-1.091-.372,60.4,60.4,0,0,0-9.206,18.264c-.429,1.369-.8,2.7-1.121,3.958-.006.53-.015,1.06-.021,1.59-.013.695-.022,1.394-.031,2.1-.009.478-.015.962-.019,1.443,0,.242-.006.481-.012.72,0,.172,0,.346-.006.518a73.787,73.787,0,0,1,2.377-9.994,59.138,59.138,0,0,1,9.007-17.857.608.608,0,0,0,.123-.365Z" fill="#007fe9"/>
            </g>
            <g id="Group_111" data-name="Group 111">
              <path id="Path_83" data-name="Path 83" d="M130.951,269.656h0c12.621-.056,23.393-5.8,30.208-10.607a69.152,69.152,0,0,0,11.88-10.521.607.607,0,1,0-.929-.782,67.883,67.883,0,0,1-11.679,10.33c-6.667,4.7-17.193,10.312-29.486,10.365a.608.608,0,0,0,0,1.215Z" fill="#007fe9"/>
            </g>
            <g id="Group_112" data-name="Group 112">
              <path id="Path_84" data-name="Path 84" d="M144.1,273.944c10.952,0,21.873-6.241,22.369-6.528a.607.607,0,1,0-.608-1.051c-.129.074-12.979,7.413-24.373,6.234a.6.6,0,0,0-.666.541.607.607,0,0,0,.541.667A26.613,26.613,0,0,0,144.1,273.944Z" fill="#007fe9"/>
            </g>
            <g id="Group_113" data-name="Group 113">
              <path id="Path_85" data-name="Path 85" d="M140.967,182.912c10.553-2.926,19.41-11.857,19.812-12.267a.607.607,0,0,0-.867-.85c-.1.1-10.527,10.61-21.822,12.518a.607.607,0,0,0,.2,1.2A26.616,26.616,0,0,0,140.967,182.912Z" fill="#007fe9"/>
            </g>
          </g>
          <g id="Group_126" data-name="Group 126">
            <g id="Group_125" data-name="Group 125">
              <path id="Path_86" data-name="Path 86" d="M132.134,133.649c0,10.671,6.57,18.025,17.24,18.025s18.107-7.907,18.107-18.577-6.318-18.755-16.989-18.755C137.7,114.342,132.134,122.979,132.134,133.649Z" fill="#2e3052"/>
              <path id="Path_87" data-name="Path 87" d="M132.377,136.479s-3.729-5.639-1.756-9.986c2.041-4.5,1.005-3.514,1.513-6.893s2.97-4.771,5.917-5.258.928-3.88,5.014-5.1,7.359,3.047,9.986,1.135,9.08-2.851,10.893,0,3.425,2.833,5.356,2.741c2.326-.111,5.444,3.557,3.34,6.934s-5.648,2.037-5.158,4.362,3.486,6.424-.532,11.631C165.734,137.623,132.377,136.479,132.377,136.479Z" fill="#2e3052"/>
              <g id="Group_117" data-name="Group 117">
                <path id="Path_88" data-name="Path 88" d="M134.532,138.244s-2.965-3.953-5.17-.684.913,12.922,6.31,10.566Z" fill="#fb876b"/>
                <g id="Group_115" data-name="Group 115">
                  <path id="Path_89" data-name="Path 89" d="M134.493,145.142a.456.456,0,0,1-.439-.333,7.048,7.048,0,0,0-3.955-4.2.456.456,0,0,1,.323-.853,7.853,7.853,0,0,1,4.511,4.807.456.456,0,0,1-.316.562A.447.447,0,0,1,134.493,145.142Z" fill="#d45c48"/>
                </g>
                <g id="Group_116" data-name="Group 116">
                  <path id="Path_90" data-name="Path 90" d="M131.376,143.641a.446.446,0,0,1-.246-.073.456.456,0,0,1-.137-.63,4.163,4.163,0,0,1,1.712-1.38.456.456,0,0,1,.373.833,3.283,3.283,0,0,0-1.317,1.041A.459.459,0,0,1,131.376,143.641Z" fill="#d45c48"/>
                </g>
              </g>
              <g id="Group_123" data-name="Group 123">
                <path id="Path_91" data-name="Path 91" d="M165.084,138.244s2.965-3.953,5.169-.684-.912,12.922-6.309,10.566Z" fill="#fb876b"/>
                <g id="Group_120" data-name="Group 120">
                  <g id="Group_119" data-name="Group 119">
                    <g id="Group_118" data-name="Group 118">
                      <path id="Path_92" data-name="Path 92" d="M165.122,145.142a.455.455,0,0,0,.439-.333,7.051,7.051,0,0,1,3.956-4.2.456.456,0,0,0-.323-.853,7.851,7.851,0,0,0-4.511,4.807.456.456,0,0,0,.316.562A.435.435,0,0,0,165.122,145.142Z" fill="#d45c48"/>
                    </g>
                  </g>
                </g>
                <g id="Group_122" data-name="Group 122">
                  <g id="Group_121" data-name="Group 121">
                    <path id="Path_93" data-name="Path 93" d="M168.239,143.641a.447.447,0,0,0,.247-.073.455.455,0,0,0,.136-.63,4.163,4.163,0,0,0-1.712-1.38.456.456,0,0,0-.372.833,3.293,3.293,0,0,1,1.317,1.041A.456.456,0,0,0,168.239,143.641Z" fill="#d45c48"/>
                  </g>
                </g>
              </g>
              <path id="Path_94" data-name="Path 94" d="M157.106,156.314v10.158a7.032,7.032,0,0,1-4.767,2.744c-4.451.527-9.274-4.177-9.274-4.177v-8.05Z" fill="#fba691"/>
              <path id="Path_95" data-name="Path 95" d="M157.106,156.314v4.26c-2.6,2.883-7.213,3.6-14.041,2.6v-6.18Z" fill="#fb876b"/>
              <path id="Path_96" data-name="Path 96" d="M132.958,138.063q.059.834.14,1.688c.144,1.43.337,2.9.6,4.361.01.052.017.1.026.147,1.289,7.081,4.188,14.039,10.434,16.271,14.15,5.051,19.2-7.08,21.224-14.154.222-.785.425-1.659.6-2.591.006-.036.013-.075.023-.118.2-1.047.366-2.162.51-3.311.108-.851.2-1.714.282-2.585.206-2.113.34-4.233.428-6.114a9.983,9.983,0,0,0-6.4-9.8c-5.8-2.232-14.615-4-22.965.736a10.023,10.023,0,0,0-5.087,8.529C132.742,133.08,132.771,135.481,132.958,138.063Z" fill="#fba691"/>
              <path id="Path_97" data-name="Path 97" d="M132.958,138.063q.059.834.14,1.688c.144,1.43.337,2.9.6,4.361.01.052.017.1.026.147,1.289,7.081,4.188,14.039,10.434,16.271,14.15,5.051,19.2-7.08,21.224-14.154.222-.785.425-1.659.6-2.591.006-.036.013-.075.023-.118.2-1.047.366-2.162.51-3.311.108-.851.2-1.714.282-2.585l-2.121.553c-.6,3.2-1.514,7.869-2.7,10.045-1.855-4.528-12.171-.789-12.171-.789s-9.2-3.268-12.311-.02a85.5,85.5,0,0,1-2.8-9.236Zm16.555,11.192c7.424-1.017,9.269.88,9.615,3.079a12.762,12.762,0,0,1-6.324,3.8c-2.548.579-7.708.526-11.474-2.441C140.951,151.984,140.522,146.991,149.513,149.255Z" fill="#2e3052"/>
              <path id="Path_98" data-name="Path 98" d="M145,138.808c0,1.025-.528,1.855-1.18,1.855s-1.18-.83-1.18-1.855.528-1.856,1.18-1.856S145,137.783,145,138.808Z" fill="#2e3052"/>
              <path id="Path_99" data-name="Path 99" d="M158.685,138.808c0,1.025-.528,1.855-1.18,1.855s-1.18-.83-1.18-1.855.528-1.856,1.18-1.856S158.685,137.783,158.685,138.808Z" fill="#2e3052"/>
              <path id="Path_100" data-name="Path 100" d="M160.845,132.44s-3.722-1.471-6.589-.233l.287,1.594s4.207-.356,6.326.5A2.764,2.764,0,0,0,160.845,132.44Z" fill="#2e3052"/>
              <path id="Path_101" data-name="Path 101" d="M139.157,132.44s3.722-1.471,6.589-.233l-.287,1.594s-4.206-.356-6.326.5A2.764,2.764,0,0,1,139.157,132.44Z" fill="#2e3052"/>
              <g id="Group_124" data-name="Group 124">
                <path id="Path_102" data-name="Path 102" d="M150.271,146.853a4.831,4.831,0,0,1-1.681-.145.456.456,0,0,1,.24-.88,2.733,2.733,0,0,0,1.836-.05.5.5,0,0,0,.172-.449,69.048,69.048,0,0,0-1.122-6.9.456.456,0,1,1,.893-.185,67.511,67.511,0,0,1,1.141,7.068,1.394,1.394,0,0,1-.524,1.186A1.918,1.918,0,0,1,150.271,146.853Z" fill="#fb876b"/>
              </g>
              <path id="Path_103" data-name="Path 103" d="M144.035,149.589c.373,1.876,1.612,5.326,5.785,5.326s5.357-3.153,5.761-5.326Z" fill="#fff"/>
              <path id="Path_104" data-name="Path 104" d="M166.745,138.325h-2.067a14.966,14.966,0,0,0-1.148-6.254c-1.412-3.789,1.593-5.461-.838-7.358s-8.482-1.087-12.69-1.223c-4.234-.137-11.039-.077-12.69.306s-.748,3.127-.141,5.257-2.03,4.479-2.472,6.682a9.694,9.694,0,0,0,0,2.59h-1.723c-.205-2.681-.236-5.177-.2-7.2a10.022,10.022,0,0,1,5.085-8.529c8.351-4.734,17.163-2.969,22.965-.739a9.992,9.992,0,0,1,6.4,9.8C167.13,133.7,166.979,136.027,166.745,138.325Z" fill="#2e3052"/>
            </g>
          </g>
          <g id="Group_130" data-name="Group 130">
            <rect id="Rectangle_8" data-name="Rectangle 8" width="115.956" height="80.099" transform="translate(114.941 236.509) rotate(-50.441)" fill="#ffaa01"/>
            <path id="Path_105" data-name="Path 105" d="M188.79,147.115l3.959,3.27,2.693,77.422L118.9,239.781l-3.959-3.27,76.674-11.858Z" fill="#f88800"/>
            <g id="Group_127" data-name="Group 127">
              <path id="Path_106" data-name="Path 106" d="M176.709,226.822l2.123,58.11-2.139,2.589-1.574-1.3-2.165-59.261Z" fill="#f88800"/>
            </g>
            <g id="Group_129" data-name="Group 129">
              <g id="Group_128" data-name="Group 128">
                <path id="Path_107" data-name="Path 107" d="M249.178,197l1.365,1.128-2.333,2.824-57.466,8.885-.573-3.713Z" fill="#f88800"/>
              </g>
            </g>
            <path id="Path_108" data-name="Path 108" d="M114.938,236.511l76.679-11.859-2.83-77.539Z" fill="#fdcc50"/>
          </g>
          <g id="Group_135" data-name="Group 135">
            <path id="Path_109" data-name="Path 109" d="M175.639,259.051h2.131a4.654,4.654,0,0,0,4.205-2.822,27.671,27.671,0,0,1,1.246-2.6c1-1.329,3.713-3.558,4.732-3.625s.83,1.826.111,2.656a17.046,17.046,0,0,0-2.463,3.06c-.609,1.174,4.981,3.553,7.25,4.107s6.253-.664,6.641,1.217-2.6,2.159-2.6,2.159.875,1.7-1.605,3.1a2.292,2.292,0,0,1-1.162,2.546,2.561,2.561,0,0,1-1.68,2.656c-1.862.554-7.673,2.239-19.074-4.679Z" fill="#fba691"/>
            <g id="Group_134" data-name="Group 134">
              <g id="Group_133" data-name="Group 133">
                <g id="Group_132" data-name="Group 132">
                  <g id="Group_131" data-name="Group 131">
                    <path id="Path_110" data-name="Path 110" d="M136.519,210.651c4.3,16.266,8.526,23.457,8.526,23.457A60.144,60.144,0,0,0,159.8,248.469a193.543,193.543,0,0,0,17.971,10.582c-1.911,2.485-3.261,7.4-2.522,8.864-23.029,0-43.169-21.817-43.169-21.817-16.113-28.041-17.164-50.878-16.9-59.2a15.879,15.879,0,0,1,2.559-8.245,8.245,8.245,0,0,1,3.1-3.007,16.782,16.782,0,0,1,9.308,10.679C132.544,194.431,136.519,210.651,136.519,210.651Z" fill="#007fe9"/>
                  </g>
                </g>
              </g>
            </g>
          </g>
          <path id="Path_111" data-name="Path 111" d="M239.072,212.088s-5.123-1.811-7.477-.831,4.17,4.513,4.17,4.513-7.909-4.209-9.274-2.513,6.2,6,6.2,6-5.793-2.036-6.969-.84,4.223,4.572,4.223,4.572-4.754-1.148-5.746-.341,3.222,4.193,5.9,5.09,3.107-2.87,3.107-2.87,2.516-2.216,2.181-3.754c0,0,2.611-1.76,2.795-3.56C238.179,217.559,241.863,214.315,239.072,212.088Z" fill="#fba691"/>
        </g>
      </g>
    </g>
  </g>
</svg>
